<svg width="214" height="214" viewBox="0 0 214 214" fill="none" xmlns="http://www.w3.org/2000/svg">
<rect width="214" height="214" fill="white"/>
<path d="M122.152 70.0052L112.272 61.4133C111.227 60.5022 109.885 60 108.496 60C107.107 60 105.765 60.5022 104.719 61.4133L94.5029 70.2737C93.1317 71.4814 92.1891 73.0976 91.8154 74.8817C91.4418 76.6657 91.6571 78.5222 92.4292 80.1746H89.9509C87.9578 80.1702 85.9961 80.6684 84.2486 81.6226C82.5012 82.5768 81.0251 83.956 79.9578 85.6315C78.8906 87.307 78.2671 89.2243 78.1455 91.2045C78.0239 93.1847 78.4081 95.1633 79.2622 96.9558C76.3165 97.0898 73.5278 98.3168 71.4455 100.395C69.3631 102.473 68.1378 105.252 68.0109 108.185C67.8841 111.117 68.8648 113.991 70.7599 116.24C72.6551 118.488 75.3274 119.95 78.2507 120.335H77.374C76.4422 120.333 75.5227 120.547 74.6892 120.962C73.8557 121.377 73.1313 121.98 72.5742 122.724C72.017 123.467 71.6425 124.33 71.4806 125.244C71.3187 126.157 71.374 127.096 71.6419 127.984C71.0148 127.648 69.8144 128.592 70.3539 130.474L76.4232 150.612C76.8218 151.62 77.5206 152.483 78.4258 153.084C79.331 153.686 80.3993 153.998 81.4876 153.978H135.437C136.539 154.083 137.644 153.807 138.565 153.196C139.487 152.584 140.168 151.675 140.494 150.622C140.494 150.622 147.022 130.243 146.618 128.592C146.572 128.402 146.47 128.23 146.324 128.099C146.178 127.969 145.996 127.885 145.802 127.86C145.672 127.843 145.54 127.854 145.414 127.89C145.656 127.004 145.69 126.074 145.512 125.172C145.334 124.271 144.95 123.422 144.389 122.693C143.828 121.963 143.106 121.372 142.279 120.966C141.451 120.559 140.541 120.348 139.618 120.349H138.738C141.666 119.965 144.343 118.503 146.241 116.25C148.139 113.998 149.119 111.119 148.988 108.182C148.858 105.245 147.625 102.463 145.534 100.387C143.444 98.3104 140.647 97.0897 137.696 96.9658C138.548 95.1785 138.932 93.206 138.814 91.2313C138.695 89.2566 138.078 87.3437 137.018 85.6699C135.959 83.9962 134.492 82.6158 132.754 81.6569C131.015 80.698 129.062 80.1916 127.075 80.1847H124.563C125.085 79.0704 125.358 77.8555 125.355 76.6271C125.368 75.4988 125.148 74.38 124.707 73.3405C124.266 72.301 123.614 71.3632 122.792 70.5859C122.651 70.442 122.504 70.3042 122.351 70.173L122.239 70.0724L122.152 70.0052ZM90.5713 150.622L88.2819 139.211C88.1924 138.775 88.2807 138.321 88.5273 137.95C88.774 137.578 89.1587 137.32 89.5969 137.23C90.035 137.141 90.4908 137.229 90.8639 137.475C91.237 137.72 91.4968 138.103 91.5862 138.539L94.0139 150.622H90.5713ZM106.776 150.622V138.875C106.776 138.43 106.954 138.003 107.27 137.688C107.586 137.374 108.015 137.197 108.462 137.197C108.909 137.197 109.338 137.374 109.654 137.688C109.97 138.003 110.148 138.43 110.148 138.875V150.622H106.776ZM122.927 150.622L125.355 138.539C125.409 138.268 125.53 138.014 125.707 137.801C125.883 137.588 126.111 137.421 126.368 137.317C126.625 137.212 126.905 137.173 127.181 137.202C127.457 137.232 127.722 137.329 127.951 137.486C128.227 137.671 128.442 137.934 128.568 138.241C128.694 138.548 128.726 138.886 128.659 139.211L126.37 150.622H122.927ZM142.15 127.061L141.756 128.34V128.326C141.65 128.409 141.55 128.497 141.455 128.592L138.933 131.515C138.711 131.77 138.32 131.85 138.161 131.515L137.001 128.853C136.411 127.561 133.97 127.249 132.065 128.971L129.367 131.515C129.262 131.645 129.129 131.75 128.978 131.822C128.826 131.895 128.66 131.932 128.492 131.932C128.325 131.932 128.159 131.895 128.007 131.822C127.856 131.75 127.723 131.645 127.617 131.515L125.257 128.592C124.06 127.152 121.245 127.779 119.437 129.105L116.555 131.515C116.243 131.772 115.851 131.913 115.447 131.913C115.042 131.913 114.65 131.772 114.339 131.515L111.642 128.853C110.706 128.148 109.56 127.776 108.386 127.797C107.213 127.818 106.08 128.232 105.171 128.971L102.474 131.515C102.157 131.712 101.792 131.816 101.418 131.816C101.045 131.816 100.679 131.712 100.363 131.515L96.853 128.592C96.0043 127.976 94.9594 127.688 93.9134 127.783C92.8674 127.877 91.8916 128.347 91.1681 129.105L89.2394 131.515C88.9259 131.871 88.356 132.025 87.6446 131.515L84.3469 128.592C84.0229 128.302 83.6409 128.084 83.226 127.951C82.8111 127.819 82.3729 127.776 81.94 127.824C81.5071 127.873 81.0895 128.012 80.7145 128.233C80.3396 128.454 80.0159 128.751 79.7646 129.105L78.8374 131.156C78.8374 131.156 78.5811 132.025 78.1158 131.515L75.7083 128.592C75.5561 128.428 75.3891 128.278 75.2093 128.145L74.8721 127.034C74.755 126.647 74.7308 126.238 74.8015 125.84C74.8722 125.441 75.0358 125.065 75.2791 124.741C75.5225 124.417 75.8388 124.155 76.2027 123.975C76.5665 123.795 76.9677 123.702 77.374 123.705H139.618C140.027 123.705 140.43 123.8 140.796 123.982C141.162 124.164 141.481 124.428 141.726 124.753C141.972 125.079 142.138 125.457 142.212 125.857C142.285 126.258 142.264 126.67 142.15 127.061ZM108.978 76.1471C108.772 76.0615 108.585 75.936 108.428 75.7779L105.933 73.2943C105.776 73.1379 105.651 72.9521 105.566 72.7477C105.481 72.5433 105.438 72.3242 105.438 72.1029C105.438 71.8816 105.481 71.6625 105.566 71.4581C105.651 71.2536 105.776 71.0679 105.933 70.9114C106.091 70.755 106.277 70.6308 106.482 70.5462C106.688 70.4615 106.908 70.4179 107.13 70.4179C107.353 70.4179 107.573 70.4615 107.778 70.5462C107.983 70.6308 108.17 70.755 108.327 70.9114L110.822 73.4286C110.982 73.58 111.11 73.7622 111.197 73.9642C111.284 74.1661 111.329 74.3835 111.329 74.6033C111.329 74.823 111.284 75.0404 111.197 75.2424C111.11 75.4443 110.982 75.6265 110.822 75.7779C110.587 76.015 110.285 76.1767 109.957 76.2424C109.628 76.3082 109.288 76.275 108.978 76.1471ZM96.1921 86.877C96.0642 86.5691 96.0308 86.2304 96.0962 85.9036C96.1616 85.5768 96.3229 85.2767 96.5597 85.0411L99.0548 82.5575C99.212 82.4011 99.3986 82.2769 99.604 82.1923C99.8094 82.1076 100.029 82.064 100.252 82.064C100.474 82.064 100.694 82.1076 100.9 82.1923C101.105 82.2769 101.292 82.4011 101.449 82.5575C101.606 82.714 101.731 82.8997 101.816 83.1042C101.901 83.3086 101.945 83.5277 101.945 83.749C101.945 83.9703 101.901 84.1894 101.816 84.3938C101.731 84.5982 101.606 84.784 101.449 84.9405L98.9199 87.4241C98.7678 87.5833 98.5847 87.7101 98.3819 87.7967C98.179 87.8833 97.9606 87.928 97.7398 87.928C97.519 87.928 97.3006 87.8833 97.0977 87.7967C96.8948 87.7101 96.7118 87.5833 96.5597 87.4241C96.4009 87.2679 96.2748 87.082 96.1888 86.877H96.1921ZM94.1353 112.237C94.2205 112.032 94.3454 111.846 94.5029 111.69L96.998 109.206C97.1552 109.05 97.3418 108.925 97.5472 108.841C97.7526 108.756 97.9727 108.712 98.195 108.712C98.4173 108.712 98.6374 108.756 98.8428 108.841C99.0482 108.925 99.2348 109.05 99.392 109.206C99.5492 109.362 99.6739 109.548 99.7589 109.753C99.844 109.957 99.8878 110.176 99.8878 110.397C99.8878 110.619 99.844 110.838 99.7589 111.042C99.6739 111.247 99.5492 111.432 99.392 111.589L96.8968 114.073C96.6201 114.349 96.2556 114.521 95.8657 114.559C95.4757 114.597 95.0845 114.5 94.7586 114.283C94.4328 114.067 94.1925 113.744 94.0789 113.371C93.9652 112.998 93.9851 112.597 94.1353 112.237ZM78.5575 106.732C78.6426 106.528 78.7675 106.342 78.9251 106.185L81.4202 103.702C81.7377 103.386 82.1682 103.208 82.6172 103.208C83.0662 103.208 83.4967 103.386 83.8142 103.702C84.1317 104.018 84.31 104.446 84.31 104.893C84.31 105.34 84.1317 105.769 83.8142 106.085L81.3191 108.568C80.997 108.876 80.5682 109.047 80.1221 109.047C79.676 109.047 79.2471 108.876 78.9251 108.568C78.6869 108.334 78.5245 108.034 78.4584 107.707C78.3924 107.38 78.4291 107.04 78.5575 106.732ZM132.81 106.732C132.895 106.528 133.02 106.342 133.178 106.185L135.673 103.702C135.99 103.386 136.421 103.208 136.87 103.208C137.319 103.208 137.749 103.386 138.067 103.702C138.384 104.018 138.563 104.446 138.563 104.893C138.563 105.34 138.384 105.769 138.067 106.085L135.572 108.568C135.25 108.876 134.821 109.047 134.375 109.047C133.928 109.047 133.5 108.876 133.178 108.568C132.939 108.334 132.777 108.034 132.711 107.707C132.645 107.38 132.678 107.04 132.807 106.732H132.81ZM123.686 114.566C123.464 114.566 123.244 114.522 123.038 114.438C122.833 114.353 122.646 114.229 122.489 114.073L119.994 111.589C119.837 111.432 119.712 111.247 119.627 111.042C119.542 110.838 119.498 110.619 119.498 110.397C119.498 110.176 119.542 109.957 119.627 109.753C119.712 109.548 119.837 109.362 119.994 109.206C120.151 109.05 120.338 108.925 120.543 108.841C120.748 108.756 120.968 108.712 121.191 108.712C121.413 108.712 121.633 108.756 121.839 108.841C122.044 108.925 122.231 109.05 122.388 109.206L124.883 111.69C125.12 111.925 125.281 112.225 125.346 112.552C125.412 112.879 125.378 113.218 125.25 113.526C125.122 113.834 124.905 114.097 124.626 114.282C124.348 114.467 124.021 114.566 123.686 114.566ZM86.0261 97.1806C86.1827 97.0243 86.3687 96.9002 86.5735 96.8156C86.7784 96.7309 86.9979 96.6873 87.2197 96.6873H90.7601C91.2073 96.6873 91.6361 96.8641 91.9523 97.1788C92.2684 97.4935 92.446 97.9203 92.446 98.3654C92.446 98.8104 92.2684 99.2373 91.9523 99.552C91.6361 99.8667 91.2073 100.043 90.7601 100.043H87.2197C86.8859 100.044 86.5593 99.946 86.2815 99.7616C86.0037 99.5773 85.7872 99.315 85.6593 99.008C85.5315 98.701 85.4981 98.3631 85.5634 98.0372C85.6287 97.7112 85.7897 97.4153 86.0261 97.1806ZM125.642 92.3342C126.09 92.3342 126.518 92.5121 126.839 92.8276L129.334 95.3112C129.651 95.6272 129.83 96.0558 129.83 96.5027C129.83 96.9495 129.651 97.3781 129.334 97.6941C129.016 98.0101 128.586 98.1876 128.137 98.1876C127.688 98.1876 127.257 98.0101 126.94 97.6941L124.445 95.2105C124.208 94.9749 124.047 94.6747 123.981 94.3478C123.916 94.021 123.949 93.6822 124.078 93.3743C124.206 93.0664 124.423 92.8032 124.701 92.6181C124.979 92.433 125.307 92.3342 125.642 92.3342ZM115.816 85.5882C115.901 85.3836 116.026 85.1977 116.184 85.0411L118.679 82.5575C118.836 82.4011 119.023 82.2769 119.228 82.1923C119.433 82.1076 119.653 82.064 119.876 82.064C120.098 82.064 120.318 82.1076 120.524 82.1923C120.729 82.2769 120.916 82.4011 121.073 82.5575C121.23 82.714 121.355 82.8997 121.44 83.1042C121.525 83.3086 121.569 83.5277 121.569 83.749C121.569 83.9703 121.525 84.1894 121.44 84.3938C121.355 84.5982 121.23 84.784 121.073 84.9405L118.578 87.4241C118.301 87.7001 117.936 87.8721 117.546 87.9105C117.157 87.949 116.765 87.8516 116.439 87.635C116.114 87.4184 115.873 87.0959 115.76 86.7227C115.646 86.3494 115.666 85.9485 115.816 85.5882ZM110.273 101.181C109.964 101.31 109.623 101.343 109.295 101.278C108.966 101.213 108.665 101.052 108.428 100.815L105.933 98.3318C105.616 98.0158 105.438 97.5872 105.438 97.1403C105.438 96.6935 105.616 96.2649 105.933 95.9489C106.251 95.6329 106.681 95.4554 107.13 95.4554C107.579 95.4554 108.01 95.6329 108.327 95.9489L110.822 98.4325C111.022 98.6276 111.169 98.8691 111.252 99.1351C111.334 99.401 111.348 99.6832 111.294 99.9562C111.239 100.229 111.118 100.484 110.939 100.699C110.761 100.913 110.532 101.08 110.273 101.185V101.181Z" fill="#343C50"/>
<path d="M51.0218 140.288C47.3171 140.288 44.4593 139.981 42.4482 139.367C40.4371 138.775 39.0399 137.822 38.2566 136.51C37.4945 135.197 37.1135 133.504 37.1135 131.429V121.426C37.1135 120.05 36.7959 118.95 36.1608 118.124C35.5469 117.298 34.6366 116.695 33.43 116.314C32.2233 115.933 30.7414 115.742 28.9844 115.742V108.153C30.7414 108.153 32.2233 107.973 33.43 107.613C34.6366 107.232 35.5469 106.629 36.1608 105.803C36.7959 104.957 37.1135 103.856 37.1135 102.501V92.403C37.1135 90.3284 37.4945 88.6455 38.2566 87.3541C39.0399 86.0416 40.4371 85.089 42.4482 84.4962C44.4593 83.8823 47.3171 83.5754 51.0218 83.5754V90.7201C49.8998 90.7412 48.9154 90.8788 48.0686 91.1329C47.243 91.3657 46.608 91.7997 46.1634 92.4348C45.7188 93.0699 45.4966 93.9907 45.4966 95.1974V104.692C45.4966 106.682 44.8615 108.27 43.5913 109.455C42.3211 110.619 40.4794 111.381 38.0661 111.741V112.122C40.4794 112.461 42.3211 113.223 43.5913 114.409C44.8615 115.573 45.4966 117.15 45.4966 119.14V128.635C45.4966 129.841 45.7188 130.762 46.1634 131.397C46.608 132.053 47.243 132.498 48.0686 132.731C48.9154 132.964 49.8998 133.091 51.0218 133.112V140.288Z" fill="#84EDCA"/>
<path d="M163.604 140.288L163.604 133.112C164.726 133.091 165.7 132.964 166.525 132.731C167.351 132.498 167.986 132.053 168.43 131.397C168.896 130.762 169.129 129.841 169.129 128.635L169.129 119.14C169.129 117.15 169.764 115.573 171.034 114.409C172.305 113.223 174.136 112.461 176.528 112.122L176.528 111.741C174.136 111.381 172.305 110.619 171.034 109.455C169.764 108.27 169.129 106.682 169.129 104.692L169.129 95.1974C169.129 93.9907 168.896 93.0699 168.43 92.4348C167.986 91.7997 167.351 91.3657 166.525 91.1329C165.7 90.8788 164.726 90.7412 163.604 90.7201L163.604 83.5754C167.309 83.5754 170.166 83.8823 172.177 84.4962C174.189 85.089 175.575 86.0416 176.337 87.3541C177.121 88.6455 177.512 90.3284 177.512 92.403L177.512 102.501C177.512 103.856 177.819 104.957 178.433 105.803C179.068 106.629 179.989 107.232 181.196 107.613C182.402 107.973 183.884 108.153 185.641 108.153L185.641 115.742C183.884 115.742 182.402 115.933 181.196 116.314C179.989 116.695 179.068 117.298 178.433 118.124C177.819 118.95 177.512 120.05 177.512 121.426L177.512 131.429C177.512 133.504 177.121 135.197 176.337 136.51C175.575 137.822 174.189 138.775 172.177 139.367C170.166 139.981 167.309 140.288 163.604 140.288Z" fill="#84EDCA"/>
</svg>
